<svg width="514" height="388" viewBox="0 0 514 388" fill="none" xmlns="http://www.w3.org/2000/svg">
<path id="Ellipse" d="M256.443 513.188C197.114 513.118 139.644 492.479 93.8257 454.787C48.0074 417.095 16.6759 364.682 5.16947 306.479C-6.33693 248.276 2.69379 187.884 30.7229 135.592C58.752 83.3012 104.045 42.3464 158.885 19.7062C213.725 -2.93393 274.719 -5.85868 331.473 11.4303C388.228 28.7194 437.232 65.1524 470.136 114.522C503.04 163.891 517.808 223.142 511.923 282.179C506.039 341.216 479.866 396.387 437.864 438.29L394.528 394.851C426.48 362.974 446.39 321.005 450.867 276.093C455.343 231.182 444.109 186.108 419.078 148.551C394.047 110.995 356.768 83.2788 313.593 70.1265C270.418 56.9743 224.018 59.1992 182.3 76.4223C140.581 93.6453 106.126 124.801 84.8029 164.58C63.4804 204.36 56.6104 250.302 65.3637 294.579C74.1169 338.856 97.9518 378.728 132.807 407.401C167.662 436.075 211.382 451.776 256.515 451.828L256.443 513.188Z" fill="url(#paint0_radial_2_10)"/>
<defs>
<radialGradient id="paint0_radial_2_10" cx="0" cy="0" r="1" gradientUnits="userSpaceOnUse" gradientTransform="translate(209.5 -28) rotate(76.2717) scale(541.469 482.442)">
<stop stop-color="white" stop-opacity="0.64"/>
<stop offset="1" stop-color="white" stop-opacity="0"/>
</radialGradient>
</defs>
</svg>
