<svg width="24" height="24" viewBox="0 0 24 24" fill="none" xmlns="http://www.w3.org/2000/svg">
<path d="M16.3738 10.2628C16.7643 9.87225 16.7643 9.23908 16.3738 8.84856C15.9833 8.45803 15.3501 8.45803 14.9596 8.84856L16.3738 10.2628ZM10.7778 14.4446L10.0707 15.1517C10.4612 15.5422 11.0944 15.5422 11.4849 15.1517L10.7778 14.4446ZM9.04048 11.293C8.64996 10.9025 8.01679 10.9025 7.62627 11.293C7.23574 11.6835 7.23574 12.3167 7.62627 12.7072L9.04048 11.293ZM14.9596 8.84856L10.0707 13.7374L11.4849 15.1517L16.3738 10.2628L14.9596 8.84856ZM11.4849 13.7374L9.04048 11.293L7.62627 12.7072L10.0707 15.1517L11.4849 13.7374Z" fill="#16A34A"/>
<path d="M12 23C18.0751 23 23 18.0751 23 12C23 5.92487 18.0751 1 12 1C5.92487 1 1 5.92487 1 12C1 18.0751 5.92487 23 12 23Z" stroke="#16A34A" stroke-width="2" stroke-miterlimit="10" stroke-linecap="round" stroke-linejoin="round"/>
</svg>
